<?xml version="1.0" encoding="UTF-8" standalone="no"?>
<!-- Created with Inkscape (http://www.inkscape.org/) -->

<svg
   xmlns:dc="http://purl.org/dc/elements/1.1/"
   xmlns:cc="http://creativecommons.org/ns#"
   xmlns:rdf="http://www.w3.org/1999/02/22-rdf-syntax-ns#"
   xmlns:svg="http://www.w3.org/2000/svg"
   xmlns="http://www.w3.org/2000/svg"
   xmlns:sodipodi="http://sodipodi.sourceforge.net/DTD/sodipodi-0.dtd"
   xmlns:inkscape="http://www.inkscape.org/namespaces/inkscape"
   width="143.54419"
   height="62.110313"
   viewBox="0 0 37.979399 16.433354"
   version="1.1"
   id="svg8"
   inkscape:version="0.92.4 5da689c313, 2019-01-14"
   sodipodi:docname="rbfx-logo.svg">
  <sodipodi:namedview
     id="base"
     pagecolor="#ffffff"
     bordercolor="#666666"
     borderopacity="1.0"
     inkscape:pageopacity="0.0"
     inkscape:pageshadow="2"
     inkscape:zoom="5.6568543"
     inkscape:cx="101.2777"
     inkscape:cy="-5.1323628"
     inkscape:document-units="mm"
     inkscape:current-layer="g1227"
     showgrid="false"
     showguides="true"
     inkscape:guide-bbox="true"
     inkscape:snap-global="false"
     fit-margin-top="0"
     fit-margin-left="0"
     fit-margin-right="0"
     fit-margin-bottom="0"
     units="px"
     showborder="false"
     inkscape:window-width="2560"
     inkscape:window-height="1411"
     inkscape:window-x="0"
     inkscape:window-y="0"
     inkscape:window-maximized="1"
     inkscape:snap-object-midpoints="true"
     inkscape:snap-center="true" />
  <defs
     id="defs2" />
  <metadata
     id="metadata5">
    <rdf:RDF>
      <cc:Work
         rdf:about="">
        <dc:format>image/svg+xml</dc:format>
        <dc:type
           rdf:resource="http://purl.org/dc/dcmitype/StillImage" />
        <dc:title />
      </cc:Work>
    </rdf:RDF>
  </metadata>
  <g
     inkscape:label="outline"
     inkscape:groupmode="layer"
     id="g1227"
     transform="translate(-10.710731,-187.12548)">
    <path
       style="color:#000000;font-style:normal;font-variant:normal;font-weight:normal;font-stretch:normal;font-size:medium;line-height:normal;font-family:sans-serif;font-variant-ligatures:normal;font-variant-position:normal;font-variant-caps:normal;font-variant-numeric:normal;font-variant-alternates:normal;font-feature-settings:normal;text-indent:0;text-align:start;text-decoration:none;text-decoration-line:none;text-decoration-style:solid;text-decoration-color:#000000;letter-spacing:normal;word-spacing:normal;text-transform:none;writing-mode:lr-tb;direction:ltr;text-orientation:mixed;dominant-baseline:auto;baseline-shift:baseline;text-anchor:start;white-space:normal;shape-padding:0;clip-rule:nonzero;display:inline;overflow:visible;visibility:visible;opacity:1;isolation:auto;mix-blend-mode:normal;color-interpolation:sRGB;color-interpolation-filters:linearRGB;solid-color:#000000;solid-opacity:1;vector-effect:none;fill:#ffffff;fill-opacity:1;fill-rule:nonzero;stroke:none;stroke-width:2.20167732;stroke-linecap:butt;stroke-linejoin:miter;stroke-miterlimit:4;stroke-dasharray:none;stroke-dashoffset:0;stroke-opacity:1;marker:none;color-rendering:auto;image-rendering:auto;shape-rendering:auto;text-rendering:auto;enable-background:accumulate"
       d="m 26.214378,191.82283 -6.6e-4,2.603 h 9.222242 l 7.961771,8.316 h 3.725 l -10.577823,-10.919 z"
       id="path1211"
       inkscape:connector-curvature="0"
       sodipodi:nodetypes="ccccccc" />
    <path
       style="color:#000000;font-style:normal;font-variant:normal;font-weight:normal;font-stretch:normal;font-size:medium;line-height:normal;font-family:sans-serif;font-variant-ligatures:normal;font-variant-position:normal;font-variant-caps:normal;font-variant-numeric:normal;font-variant-alternates:normal;font-feature-settings:normal;text-indent:0;text-align:start;text-decoration:none;text-decoration-line:none;text-decoration-style:solid;text-decoration-color:#000000;letter-spacing:normal;word-spacing:normal;text-transform:none;writing-mode:lr-tb;direction:ltr;text-orientation:mixed;dominant-baseline:auto;baseline-shift:baseline;text-anchor:start;white-space:normal;shape-padding:0;clip-rule:nonzero;display:inline;overflow:visible;visibility:visible;opacity:1;isolation:auto;mix-blend-mode:normal;color-interpolation:sRGB;color-interpolation-filters:linearRGB;solid-color:#000000;solid-opacity:1;vector-effect:none;fill:#ffffff;fill-opacity:1;fill-rule:nonzero;stroke:none;stroke-width:2.20167732;stroke-linecap:butt;stroke-linejoin:miter;stroke-miterlimit:4;stroke-dasharray:none;stroke-dashoffset:0;stroke-opacity:1;marker:none;color-rendering:auto;image-rendering:auto;shape-rendering:auto;text-rendering:auto;enable-background:accumulate"
       d="m 18.832731,186.92483 v 15.847 l 2.602,5e-4 v -15.847 z"
       id="path1213"
       inkscape:connector-curvature="0"
       sodipodi:nodetypes="ccccc" />
    <path
       style="color:#000000;font-style:normal;font-variant:normal;font-weight:normal;font-stretch:normal;font-size:medium;line-height:normal;font-family:sans-serif;font-variant-ligatures:normal;font-variant-position:normal;font-variant-caps:normal;font-variant-numeric:normal;font-variant-alternates:normal;font-feature-settings:normal;text-indent:0;text-align:start;text-decoration:none;text-decoration-line:none;text-decoration-style:solid;text-decoration-color:#000000;letter-spacing:normal;word-spacing:normal;text-transform:none;writing-mode:lr-tb;direction:ltr;text-orientation:mixed;dominant-baseline:auto;baseline-shift:baseline;text-anchor:start;white-space:normal;shape-padding:0;clip-rule:nonzero;display:inline;overflow:visible;visibility:visible;opacity:1;isolation:auto;mix-blend-mode:normal;color-interpolation:sRGB;color-interpolation-filters:linearRGB;solid-color:#000000;solid-opacity:1;vector-effect:none;fill:#ffffff;fill-opacity:1;fill-rule:nonzero;stroke:none;stroke-width:1.83464825;stroke-linecap:butt;stroke-linejoin:miter;stroke-miterlimit:4;stroke-dasharray:none;stroke-dashoffset:0;stroke-opacity:1;marker:none;color-rendering:auto;image-rendering:auto;shape-rendering:auto;text-rendering:auto;enable-background:accumulate"
       d="m 26.207031,191.70238 c -0.400083,0.0168 -0.757874,0.31714 -0.886719,0.4961 -0.128844,0.17895 -0.169703,0.28268 -0.210937,0.35742 -0.04544,0.0824 -0.09425,0.10019 -0.128906,0.13476 -0.244301,-0.0283 -0.488213,-0.0755 -0.734375,-0.0664 h -0.002 -0.0039 c -0.241561,0.0109 -0.476112,0.0763 -0.71289,0.12305 -0.0522,-0.0384 -0.104319,-0.0536 -0.1875,-0.16602 -0.0671,-0.0907 -0.147455,-0.22837 -0.347656,-0.40039 -0.200202,-0.17202 -0.590916,-0.33383 -0.929688,-0.30859 -1.042992,0.12668 -0.927806,0.52112 -1.445312,0.93042 -0.423832,0.33522 -0.706844,0.57927 -0.921876,0.95899 -0.215031,0.37972 -0.172205,1.03791 0.0039,1.33398 0.325691,0.54754 0.386768,0.47673 0.423828,0.65235 -0.201773,0.45937 -0.352312,0.93391 -0.404297,1.43359 -0.02664,0.0451 -0.03553,0.0622 -0.05664,0.10352 l -0.408203,0.13476 v 2.77344 l 0.0918,0.19141 c 0.144231,0.29509 0.201056,0.48563 0.505859,0.7539 0.152402,0.13414 0.455953,0.28014 0.740235,0.26953 0.284281,-0.0106 0.44919,-0.11494 0.537109,-0.16797 0.258023,-0.1556 -0.01635,0.13621 -0.01232,0.16551 0.341413,0.30474 0.473333,0.39585 0.889199,0.64575 0.295308,0.22618 0.232661,0.18749 0.312051,0.65144 0.04744,0.19021 0.382223,0.62774 0.585011,0.79079 0.229659,0.14651 0.467328,0.19694 0.645258,0.22739 0.41478,0.071 0.677027,0.0492 1.190083,0.0286 0.512448,-0.0207 0.987811,-0.10083 1.334632,-0.20393 0.173411,-0.0516 0.397932,-0.15213 0.58784,-0.33687 0.189908,-0.18475 0.330283,-0.45894 0.35737,-0.65236 0.08077,-0.52374 0.04113,-0.47094 0.136501,-0.62608 0.395668,-0.23172 0.558425,-0.3225 0.873472,-0.65569 0.164799,-0.0261 0.207714,-0.099 0.841793,-0.0133 0.344763,0.0466 0.926412,-0.29741 1.189531,-0.64035 0.26312,-0.34293 0.390247,-0.7839 0.53513,-1.30059 0.145416,-0.51859 0.231431,-0.88081 0.183594,-1.3125 -0.04784,-0.43169 -0.256845,-0.90718 -0.78527,-1.1794 -0.548983,-0.29994 -0.521713,-0.14846 -0.652149,-0.26299 -0.148656,-0.78448 -0.198852,-0.73109 -0.443679,-1.21576 -0.05023,-0.21892 -0.0048,-0.0588 0.275629,-0.63286 0.215696,-0.4853 -0.06031,-0.96969 -0.305397,-1.33014 -0.245088,-0.36046 -0.546832,-0.77942 -0.996094,-1.07887 -0.564198,-0.37604 -1.088067,-0.62956 -1.664063,-0.60547 z M 26.5,193.84961 c 0.07027,0.0249 0.06562,-0.006 0.353516,0.18555 0.238655,0.15907 0.252224,0.18641 0.320312,0.24804 -0.146523,0.17973 -0.395303,0.38979 -0.433594,1.07032 l -0.01758,0.31836 0.183594,0.25976 c 0.297233,0.42302 0.479553,0.9171 0.53125,1.43164 l 0.0332,0.31836 0.222656,0.22852 c 0.47182,0.48507 0.989879,0.48195 1.215555,0.52154 -0.01173,0.0923 -0.0054,0.11917 -0.08203,0.39258 -0.07602,0.27111 -0.29649,0.29118 -0.334695,0.37689 -0.210774,-0.0834 -0.468334,-0.24955 -1.117188,-0.0879 l -0.320312,0.0801 -0.195313,0.26367 c -0.314444,0.42473 -0.736173,0.76033 -1.220703,0.9707 l -0.302734,0.13086 -0.148438,0.29493 c -0.244513,0.48119 -0.152859,0.57262 -0.140625,0.81836 -0.124233,0.0154 -0.157889,0.0283 -0.423828,0.0391 -0.274296,0.0111 -0.316135,0.002 -0.441406,-0.004 -0.0075,-0.23445 0.07384,-0.34381 -0.214844,-0.81055 l -0.173828,-0.27929 -0.3125,-0.10742 c -0.500815,-0.16942 -0.948004,-0.46769 -1.296875,-0.86524 l -0.216797,-0.24805 -0.326172,-0.0527 c -0.291588,-0.0469 -0.309231,0.0561 -0.552734,0.12305 v -1.04102 c 0.03393,-0.0677 0.105121,-0.16476 0.115234,-0.19336 0.04376,-0.12376 -0.02179,0.002 0.03125,-0.0625 l 0.203125,-0.24609 0.0059,-0.31836 c 0.01009,-0.51572 0.153094,-1.02008 0.414063,-1.46485 l 0.160156,-0.27343 -0.04297,-0.31446 c -0.09238,-0.67741 -0.358648,-0.86939 -0.519531,-1.03711 0.06279,-0.0669 0.07364,-0.0953 0.298828,-0.27343 0.282382,-0.22334 0.254378,-0.19982 0.292969,-0.22657 0.189966,0.23384 0.440102,0.55706 0.943359,0.74805 l 0.292969,0.11133 0.300781,-0.0898 c 0.239548,-0.0728 0.48626,-0.11548 0.736328,-0.12696 0.251857,-0.009 0.504029,0.0124 0.75,0.0664 l 0.306641,0.0684 0.283203,-0.13477 c 0.457871,-0.21652 0.660079,-0.54198 0.839844,-0.80859 z m -5.976562,5.72656 c 0.01262,-4.7e-4 0.01854,0.009 0.03125,0.01 -0.07689,0.0398 -0.390275,0.0944 -0.373047,0.084 0.01684,-0.0101 0.121251,-0.0855 0.341797,-0.0937 z"
       id="path1215"
       inkscape:connector-curvature="0"
       sodipodi:nodetypes="cccccccccccccccccccccccccccsccccccccccccccccccccccccccccccccccccccccccccccccccccccccccccccccccccccc" />
    <path
       style="color:#000000;clip-rule:nonzero;display:inline;overflow:visible;visibility:visible;opacity:1;isolation:auto;mix-blend-mode:normal;color-interpolation:sRGB;color-interpolation-filters:linearRGB;solid-color:#000000;solid-opacity:1;vector-effect:none;fill:#ffffff;fill-opacity:1;fill-rule:nonzero;stroke:none;stroke-width:0.55891073;stroke-linecap:butt;stroke-linejoin:miter;stroke-miterlimit:4;stroke-dasharray:none;stroke-dashoffset:0;stroke-opacity:1;marker:none;color-rendering:auto;image-rendering:auto;shape-rendering:auto;text-rendering:auto;enable-background:accumulate"
       d="m 22.319681,192.95519 c -0.187105,0.0131 -0.459582,0.15614 -0.919827,0.51659 -1.50646,1.17976 -0.272514,0.97266 -0.125588,2.08998 a 3.8134123,3.8116365 87.863127 0 0 -0.532583,1.85348 c -0.713995,0.85912 -1.645946,0.0392 -0.991727,1.83219 0.650444,1.78265 0.836134,0.57884 1.918668,0.75844 a 3.8134123,3.8116365 87.863127 0 0 1.638391,1.10449 c 0.572233,0.93516 -0.471203,1.55933 1.423664,1.49165 1.892746,-0.0676 0.812972,-0.61493 1.312641,-1.58671 a 3.8134123,3.8116365 87.863127 0 0 1.551622,-1.22095 c 1.070824,-0.26134 1.342175,0.93289 1.864038,-0.89446 0.523726,-1.83387 -0.345287,-0.95272 -1.118549,-1.75536 a 3.8134123,3.8116365 87.863127 0 0 -0.665632,-1.81517 c 0.06852,-1.12185 1.310571,-1.00457 -0.275136,-2.07249 -1.592839,-1.07274 -1.005534,0.0492 -2.037621,0.53139 a 3.8134123,3.8116365 87.863127 0 0 -0.957204,-0.0904 3.8134123,3.8116365 87.863127 0 0 -0.937738,0.15667 c -0.736977,-0.28375 -0.720468,-0.92903 -1.147419,-0.89928 z"
       id="path1217"
       inkscape:connector-curvature="0" />
    <path
       style="color:#000000;font-style:normal;font-variant:normal;font-weight:normal;font-stretch:normal;font-size:medium;line-height:normal;font-family:sans-serif;font-variant-ligatures:normal;font-variant-position:normal;font-variant-caps:normal;font-variant-numeric:normal;font-variant-alternates:normal;font-feature-settings:normal;text-indent:0;text-align:start;text-decoration:none;text-decoration-line:none;text-decoration-style:solid;text-decoration-color:#000000;letter-spacing:normal;word-spacing:normal;text-transform:none;writing-mode:lr-tb;direction:ltr;text-orientation:mixed;dominant-baseline:auto;baseline-shift:baseline;text-anchor:start;white-space:normal;shape-padding:0;clip-rule:nonzero;display:inline;overflow:visible;visibility:visible;opacity:1;isolation:auto;mix-blend-mode:normal;color-interpolation:sRGB;color-interpolation-filters:linearRGB;solid-color:#000000;solid-opacity:1;vector-effect:none;fill:#ffffff;fill-opacity:1;fill-rule:nonzero;stroke:none;stroke-width:2.2019999;stroke-linecap:butt;stroke-linejoin:miter;stroke-miterlimit:4;stroke-dasharray:none;stroke-dashoffset:0;stroke-opacity:1;marker:none;color-rendering:auto;image-rendering:auto;shape-rendering:auto;text-rendering:auto;enable-background:accumulate"
       d="m 12.190731,191.69204 v 6.13364 4.94595 l 2.601,4.9e-4 v -4.94595 c 0,-1.67545 1.420304,-3.44699 3.44655,-3.44663 h 1.01445 v -2.60071 l -1.01445,-3.6e-4 c -1.398491,-5e-4 -2.308938,0.29032 -3.44655,0.98836 v -1.0743 z"
       id="path1219"
       inkscape:connector-curvature="0"
       sodipodi:nodetypes="ccccssccsccc" />
    <path
       style="color:#000000;font-style:normal;font-variant:normal;font-weight:normal;font-stretch:normal;font-size:medium;line-height:normal;font-family:sans-serif;font-variant-ligatures:normal;font-variant-position:normal;font-variant-caps:normal;font-variant-numeric:normal;font-variant-alternates:normal;font-feature-settings:normal;text-indent:0;text-align:start;text-decoration:none;text-decoration-line:none;text-decoration-style:solid;text-decoration-color:#000000;letter-spacing:normal;word-spacing:normal;text-transform:none;writing-mode:lr-tb;direction:ltr;text-orientation:mixed;dominant-baseline:auto;baseline-shift:baseline;text-anchor:start;white-space:normal;shape-padding:0;clip-rule:nonzero;display:inline;overflow:visible;visibility:visible;opacity:1;isolation:auto;mix-blend-mode:normal;color-interpolation:sRGB;color-interpolation-filters:linearRGB;solid-color:#000000;solid-opacity:1;vector-effect:none;fill:#ffffff;fill-opacity:1;fill-rule:nonzero;stroke:none;stroke-width:2.202;stroke-linecap:butt;stroke-linejoin:miter;stroke-miterlimit:4;stroke-dasharray:none;stroke-dashoffset:0;stroke-opacity:1;marker:none;color-rendering:auto;image-rendering:auto;shape-rendering:auto;text-rendering:auto;enable-background:accumulate"
       d="m 37.247325,186.95183 c -3.695765,0 -6.248594,2.65006 -6.248594,6.04817 v 9.77207 l 2.60211,-4.7e-4 v -9.77207 c 0,-2.02633 1.62015,-3.44752 3.646484,-3.4467 h 0.529297 v -2.601 z"
       id="path1221"
       inkscape:connector-curvature="0"
       sodipodi:nodetypes="ssccssccs" />
    <path
       style="color:#000000;font-style:normal;font-variant:normal;font-weight:normal;font-stretch:normal;font-size:medium;line-height:normal;font-family:sans-serif;font-variant-ligatures:normal;font-variant-position:normal;font-variant-caps:normal;font-variant-numeric:normal;font-variant-alternates:normal;font-feature-settings:normal;text-indent:0;text-align:start;text-decoration:none;text-decoration-line:none;text-decoration-style:solid;text-decoration-color:#000000;letter-spacing:normal;word-spacing:normal;text-transform:none;writing-mode:lr-tb;direction:ltr;text-orientation:mixed;dominant-baseline:auto;baseline-shift:baseline;text-anchor:start;white-space:normal;shape-padding:0;clip-rule:nonzero;display:inline;overflow:visible;visibility:visible;opacity:1;isolation:auto;mix-blend-mode:normal;color-interpolation:sRGB;color-interpolation-filters:linearRGB;solid-color:#000000;solid-opacity:1;vector-effect:none;fill:#ffffff;fill-opacity:1;fill-rule:nonzero;stroke:none;stroke-width:2.20167732;stroke-linecap:butt;stroke-linejoin:miter;stroke-miterlimit:4;stroke-dasharray:none;stroke-dashoffset:0;stroke-opacity:1;marker:none;color-rendering:auto;image-rendering:auto;shape-rendering:auto;text-rendering:auto;enable-background:accumulate"
       d="m 45.194139,191.81883 -11.053408,10.953 h 3.814 l 8.976,-9.177 z"
       id="path1223"
       inkscape:connector-curvature="0"
       sodipodi:nodetypes="ccccc" />
    <path
       sodipodi:nodetypes="cccccccccc"
       inkscape:connector-curvature="0"
       id="path1225"
       d="m 24.456343,194.87893 c -1.371895,0.0514 -2.442488,1.20482 -2.391421,2.57651 0.05114,1.37192 1.204948,2.4426 2.57708,2.39142 1.371895,-0.0514 2.442488,-1.20482 2.391422,-2.57651 -0.05114,-1.37192 -1.204949,-2.4426 -2.577081,-2.39142 z m 0.02461,0.60859 c 1.01029,-0.0364 1.859989,0.67503 1.897766,1.6468 0.03805,0.97207 -0.750709,2.01762 -1.761343,2.05366 -1.010631,0.0364 -1.860474,-0.95034 -1.897766,-1.92246 -0.03753,-0.97172 0.751075,-1.74196 1.761343,-1.778 z"
       style="color:#000000;clip-rule:nonzero;display:inline;overflow:visible;visibility:visible;opacity:1;isolation:auto;mix-blend-mode:normal;color-interpolation:sRGB;color-interpolation-filters:linearRGB;solid-color:#000000;solid-opacity:1;vector-effect:none;fill:#ffffff;fill-opacity:1;fill-rule:nonzero;stroke:none;stroke-width:1.42765439;stroke-linecap:butt;stroke-linejoin:miter;stroke-miterlimit:4;stroke-dasharray:none;stroke-dashoffset:0;stroke-opacity:1;marker:none;color-rendering:auto;image-rendering:auto;shape-rendering:auto;text-rendering:auto;enable-background:accumulate" />
  </g>
  <g
     transform="translate(-10.710731,-187.12548)"
     id="layer1"
     inkscape:groupmode="layer"
     inkscape:label="Layer 1">
    <path
       sodipodi:nodetypes="ccccccc"
       inkscape:connector-curvature="0"
       id="path828"
       d="m 26.41462,192.02316 v 2.20236 h 9.122026 l 8.061256,8.31677 h 3.124473 L 36.444677,192.02316 Z"
       style="color:#000000;font-style:normal;font-variant:normal;font-weight:normal;font-stretch:normal;font-size:medium;line-height:normal;font-family:sans-serif;font-variant-ligatures:normal;font-variant-position:normal;font-variant-caps:normal;font-variant-numeric:normal;font-variant-alternates:normal;font-feature-settings:normal;text-indent:0;text-align:start;text-decoration:none;text-decoration-line:none;text-decoration-style:solid;text-decoration-color:#000000;letter-spacing:normal;word-spacing:normal;text-transform:none;writing-mode:lr-tb;direction:ltr;text-orientation:mixed;dominant-baseline:auto;baseline-shift:baseline;text-anchor:start;white-space:normal;shape-padding:0;clip-rule:nonzero;display:inline;overflow:visible;visibility:visible;opacity:1;isolation:auto;mix-blend-mode:normal;color-interpolation:sRGB;color-interpolation-filters:linearRGB;solid-color:#000000;solid-opacity:1;vector-effect:none;fill:#090909;fill-opacity:1;fill-rule:nonzero;stroke:none;stroke-width:2.20167732;stroke-linecap:butt;stroke-linejoin:miter;stroke-miterlimit:4;stroke-dasharray:none;stroke-dashoffset:0;stroke-opacity:1;marker:none;color-rendering:auto;image-rendering:auto;shape-rendering:auto;text-rendering:auto;enable-background:accumulate" />
    <path
       sodipodi:nodetypes="cc"
       inkscape:connector-curvature="0"
       id="path822"
       d="M 20.134389,202.57144 V 187.12548"
       style="color:#000000;clip-rule:nonzero;display:inline;overflow:visible;visibility:visible;opacity:1;isolation:auto;mix-blend-mode:normal;color-interpolation:sRGB;color-interpolation-filters:linearRGB;solid-color:#000000;solid-opacity:1;vector-effect:none;fill:none;fill-opacity:1;fill-rule:nonzero;stroke:#090909;stroke-width:2.20167732;stroke-linecap:butt;stroke-linejoin:miter;stroke-miterlimit:4;stroke-dasharray:none;stroke-dashoffset:0;stroke-opacity:1;marker:none;color-rendering:auto;image-rendering:auto;shape-rendering:auto;text-rendering:auto;enable-background:accumulate" />
    <path
       style="color:#000000;clip-rule:nonzero;display:inline;overflow:visible;visibility:visible;opacity:1;isolation:auto;mix-blend-mode:normal;color-interpolation:sRGB;color-interpolation-filters:linearRGB;solid-color:#000000;solid-opacity:1;vector-effect:none;fill:#ffffff;fill-opacity:1;fill-rule:nonzero;stroke:#090909;stroke-width:1.83464825;stroke-linecap:butt;stroke-linejoin:miter;stroke-miterlimit:4;stroke-dasharray:none;stroke-dashoffset:0;stroke-opacity:1;marker:none;color-rendering:auto;image-rendering:auto;shape-rendering:auto;text-rendering:auto;enable-background:accumulate"
       d="m 25.26711,193.82951 c -0.323681,-0.0711 -0.655052,-0.10083 -0.986206,-0.0886 -0.327199,0.0148 -0.651262,0.0705 -0.964631,0.16578 -0.760325,-0.28855 -0.746539,-0.95308 -1.186059,-0.92034 -0.192617,0.0142 -0.472585,0.16309 -0.944759,0.53654 -1.545496,1.22235 -0.276049,1.00308 -0.11923,2.15296 -0.340477,0.58027 -0.526207,1.23834 -0.539376,1.91109 -0.266735,0.3241 -0.118787,0.4174 -0.356211,0.49566 v 1.89917 c 0.519835,1.06358 0.333455,0.10915 1.323681,0.26855 0.455175,0.51869 1.03895,0.9082 1.692504,1.12928 0.593892,0.96019 -0.477051,1.32739 1.473915,1.24836 1.948778,-0.0789 0.834148,-0.35646 1.343897,-1.35964 0.632303,-0.27454 1.181187,-0.71083 1.591443,-1.26498 1.101422,-0.27442 1.386684,0.95379 1.915067,-0.93056 0.530269,-1.89108 -0.360255,-0.97935 -1.160509,-1.80209 -0.06744,-0.67123 -0.306587,-1.31377 -0.694376,-1.86567 0.06502,-1.15557 1.34467,-1.04119 -0.293534,-2.13309 -0.514241,-0.34275 -0.808068,-0.46568 -1.117615,-0.45273 -0.309548,0.013 -0.248946,0.66554 -0.978001,1.01031 z"
       id="path881"
       inkscape:connector-curvature="0"
       sodipodi:nodetypes="cccccccccccsccsccccc" />
    <path
       inkscape:connector-curvature="0"
       id="path1117"
       d="m 22.319681,192.95519 c -0.187105,0.0131 -0.459582,0.15614 -0.919827,0.51659 -1.50646,1.17976 -0.272514,0.97266 -0.125588,2.08998 a 3.8134123,3.8116365 87.863127 0 0 -0.532583,1.85348 c -0.713995,0.85912 -1.645946,0.0392 -0.991727,1.83219 0.650444,1.78265 0.836134,0.57884 1.918668,0.75844 a 3.8134123,3.8116365 87.863127 0 0 1.638391,1.10449 c 0.572233,0.93516 -0.471203,1.55933 1.423664,1.49165 1.892746,-0.0676 0.812972,-0.61493 1.312641,-1.58671 a 3.8134123,3.8116365 87.863127 0 0 1.551622,-1.22095 c 1.070824,-0.26134 1.342175,0.93289 1.864038,-0.89446 0.523726,-1.83387 -0.345287,-0.95272 -1.118549,-1.75536 a 3.8134123,3.8116365 87.863127 0 0 -0.665632,-1.81517 c 0.06852,-1.12185 1.310571,-1.00457 -0.275136,-2.07249 -1.592839,-1.07274 -1.005534,0.0492 -2.037621,0.53139 a 3.8134123,3.8116365 87.863127 0 0 -0.957204,-0.0904 3.8134123,3.8116365 87.863127 0 0 -0.937738,0.15667 c -0.736977,-0.28375 -0.720468,-0.92903 -1.147419,-0.89928 z"
       style="color:#000000;clip-rule:nonzero;display:inline;overflow:visible;visibility:visible;opacity:1;isolation:auto;mix-blend-mode:normal;color-interpolation:sRGB;color-interpolation-filters:linearRGB;solid-color:#000000;solid-opacity:1;vector-effect:none;fill:#dfdfdf;fill-opacity:1;fill-rule:nonzero;stroke:none;stroke-width:0.55891073;stroke-linecap:butt;stroke-linejoin:miter;stroke-miterlimit:4;stroke-dasharray:none;stroke-dashoffset:0;stroke-opacity:1;marker:none;color-rendering:auto;image-rendering:auto;shape-rendering:auto;text-rendering:auto;enable-background:accumulate" />
    <path
       sodipodi:nodetypes="csscc"
       inkscape:connector-curvature="0"
       id="path815"
       d="m 19.052038,193.07897 h -0.814073 c -2.621273,0 -4.746234,2.12497 -4.746234,4.74624 v 4.74623 -10.67886"
       style="color:#000000;clip-rule:nonzero;display:inline;overflow:visible;visibility:visible;opacity:1;isolation:auto;mix-blend-mode:normal;color-interpolation:sRGB;color-interpolation-filters:linearRGB;solid-color:#000000;solid-opacity:1;vector-effect:none;fill:none;fill-opacity:1;fill-rule:nonzero;stroke:#090909;stroke-width:2.2019999;stroke-linecap:butt;stroke-linejoin:miter;stroke-miterlimit:4;stroke-dasharray:none;stroke-dashoffset:0;stroke-opacity:1;marker:none;color-rendering:auto;image-rendering:auto;shape-rendering:auto;text-rendering:auto;enable-background:accumulate" />
    <path
       sodipodi:nodetypes="cssc"
       inkscape:connector-curvature="0"
       style="color:#000000;clip-rule:nonzero;display:inline;overflow:visible;visibility:visible;opacity:1;isolation:auto;mix-blend-mode:normal;color-interpolation:sRGB;color-interpolation-filters:linearRGB;solid-color:#000000;solid-opacity:1;vector-effect:none;fill:none;fill-opacity:1;fill-rule:nonzero;stroke:#090909;stroke-width:2.20167732;stroke-linecap:butt;stroke-linejoin:miter;stroke-miterlimit:4;stroke-dasharray:none;stroke-dashoffset:0;stroke-opacity:1;marker:none;color-rendering:auto;image-rendering:auto;shape-rendering:auto;text-rendering:auto;enable-background:accumulate"
       d="m 37.576662,188.25364 h -0.53059 c -2.621271,0 -4.746234,2.12496 -4.746234,4.74623 v 9.57157"
       id="path826" />
    <path
       sodipodi:nodetypes="ccccc"
       inkscape:connector-curvature="0"
       id="path830"
       d="m 45.194139,192.01856 -10.553816,10.553 h 3.11418 l 8.976272,-8.97696 z"
       style="color:#000000;font-style:normal;font-variant:normal;font-weight:normal;font-stretch:normal;font-size:medium;line-height:normal;font-family:sans-serif;font-variant-ligatures:normal;font-variant-position:normal;font-variant-caps:normal;font-variant-numeric:normal;font-variant-alternates:normal;font-feature-settings:normal;text-indent:0;text-align:start;text-decoration:none;text-decoration-line:none;text-decoration-style:solid;text-decoration-color:#000000;letter-spacing:normal;word-spacing:normal;text-transform:none;writing-mode:lr-tb;direction:ltr;text-orientation:mixed;dominant-baseline:auto;baseline-shift:baseline;text-anchor:start;white-space:normal;shape-padding:0;clip-rule:nonzero;display:inline;overflow:visible;visibility:visible;opacity:1;isolation:auto;mix-blend-mode:normal;color-interpolation:sRGB;color-interpolation-filters:linearRGB;solid-color:#000000;solid-opacity:1;vector-effect:none;fill:#090909;fill-opacity:1;fill-rule:nonzero;stroke:none;stroke-width:2.20167732;stroke-linecap:butt;stroke-linejoin:miter;stroke-miterlimit:4;stroke-dasharray:none;stroke-dashoffset:0;stroke-opacity:1;marker:none;color-rendering:auto;image-rendering:auto;shape-rendering:auto;text-rendering:auto;enable-background:accumulate" />
    <path
       style="color:#000000;clip-rule:nonzero;display:inline;overflow:visible;visibility:visible;opacity:1;isolation:auto;mix-blend-mode:normal;color-interpolation:sRGB;color-interpolation-filters:linearRGB;solid-color:#000000;solid-opacity:1;vector-effect:none;fill:#000000;fill-opacity:1;fill-rule:nonzero;stroke:none;stroke-width:1.42765439;stroke-linecap:butt;stroke-linejoin:miter;stroke-miterlimit:4;stroke-dasharray:none;stroke-dashoffset:0;stroke-opacity:1;marker:none;color-rendering:auto;image-rendering:auto;shape-rendering:auto;text-rendering:auto;enable-background:accumulate"
       d="m 24.456343,194.87893 c -1.371895,0.0514 -2.442488,1.20482 -2.391421,2.57651 0.05114,1.37192 1.204948,2.4426 2.57708,2.39142 1.371895,-0.0514 2.442488,-1.20482 2.391422,-2.57651 -0.05114,-1.37192 -1.204949,-2.4426 -2.577081,-2.39142 z m 0.02461,0.60859 c 1.01029,-0.0364 1.859989,0.67503 1.897766,1.6468 0.03805,0.97207 -0.750709,2.01762 -1.761343,2.05366 -1.010631,0.0364 -1.860474,-0.95034 -1.897766,-1.92246 -0.03753,-0.97172 0.751075,-1.74196 1.761343,-1.778 z"
       id="circle917"
       inkscape:connector-curvature="0"
       sodipodi:nodetypes="cccccccccc" />
  </g>
</svg>
